<svg id="Capa_1" data-name="Capa 1" xmlns="http://www.w3.org/2000/svg" viewBox="0 0 83.69 50.24"><defs><style>.cls-1{fill:#fff;}</style></defs><path class="cls-1" d="M69.53,0l-3.6,17c-1.29-1.67-4.48-3.6-10.15-3.58A19.38,19.38,0,0,0,44.36,17L48,0H33.81L30.22,17c-1.29-1.67-4.48-3.6-10.15-3.58C7.42,13.48,0,24,0,35.13c0,8.78,4.87,15.11,13.28,15.11,5.52,0,8.52-1.54,11-4a24.07,24.07,0,0,0-.38,3.11H37.72c.22-1.31.48-2.73.77-4.26A12.25,12.25,0,0,0,49,50.24c5.53,0,8.53-1.54,11-4a26,26,0,0,0-.38,3.11H73.43c.49-2.83,1.11-6.11,1.94-10.08L83.69,0Zm-42,32.07c-1.05,5-3.42,8.58-8,8.58-3.29,0-5.09-2.33-5.09-5.93,0-5,2.73-11.83,8.22-11.83C27.54,22.89,28.68,26.29,27.5,32.07Zm35.71,0c-1,5-3.42,8.58-8,8.58-3.29,0-5.08-2.33-5.08-5.93,0-5,2.73-11.83,8.21-11.83C63.25,22.89,64.39,26.29,63.21,32.07Z"/></svg>