<svg id="Capa_2" data-name="Capa 2" xmlns="http://www.w3.org/2000/svg" viewBox="0 0 300 287.64"><defs><style>.cls-1{fill:#1e3956;}</style></defs><path class="cls-1" d="M0,106.28H300a0,0,0,0,1,0,0v166.2a15.16,15.16,0,0,1-15.16,15.16H15.16A15.16,15.16,0,0,1,0,272.48V106.28a0,0,0,0,1,0,0Z"/><path class="cls-1" d="M295,95v24.1H32l56.66-15.4,2.18-.6,1-2,3-6.08H295M5,113.45l1.66,5.6H5v-5.6M300,90H91.68l-4.36,8.87L12,119.32,3.42,90.47,0,90v34.1H300V90Z" transform="translate(0 -12.36)"/><path class="cls-1" d="M287.09,18.47l6.17,23.31L12.91,116,6.74,92.65,287.09,18.47m3.56-6.11L.63,89.09l8.72,33,290-76.73-8.72-33Z" transform="translate(0 -12.36)"/><polygon class="cls-1" points="46.58 116.48 84.95 78.11 128.05 78.11 90.16 119.17 46.58 116.48"/><polygon class="cls-1" points="128.05 116.48 166.42 78.11 209.53 78.11 171.63 119.17 128.05 116.48"/><polygon class="cls-1" points="215.68 116.48 254.05 78.11 297.16 78.11 259.26 119.17 215.68 116.48"/><polygon class="cls-1" points="125.04 46.32 83.37 57.34 62.64 92.99 106.48 81.39 125.04 46.32"/><polygon class="cls-1" points="203.8 25.48 162.13 36.51 141.4 72.15 185.24 60.55 203.8 25.48"/><polygon class="cls-1" points="288.52 3.07 246.85 14.09 226.12 49.74 269.96 38.14 288.52 3.07"/></svg>