<?xml version="1.0" encoding="utf-8"?>
<!-- Generator: Adobe Illustrator 25.4.1, SVG Export Plug-In . SVG Version: 6.00 Build 0)  -->
<svg version="1.1" id="Capa_1" xmlns="http://www.w3.org/2000/svg" xmlns:xlink="http://www.w3.org/1999/xlink" x="0px" y="0px"
	 viewBox="0 0 26 26" style="enable-background:new 0 0 26 26;" xml:space="preserve">
<style type="text/css">
	.st0{fill:#ADADAD;}
</style>
<g>
	<path class="st0" d="M13,26c-3.46,0-6.92,0-10.38,0C1.12,26,0,24.87,0,23.37c0.01-3.47,0-6.93,0-10.4c0-3.18,0-6.35,0-9.53
		c0-0.46-0.02-0.93,0.05-1.38c0.18-1.14,1.24-2.04,2.4-2.05C5.35,0,8.24,0,11.13,0c4.07,0,8.15,0,12.22,0C24.89,0,26,1.11,26,2.65
		c0,4.36,0,8.73,0,13.09c0,2.58,0.01,5.17-0.01,7.75c-0.01,1.37-1.12,2.49-2.48,2.5C20.9,26.01,18.3,26,15.69,26
		C14.79,26,13.9,26,13,26z M11.73,12.51c0.06-0.04,0.09-0.05,0.12-0.07c0.96-0.56,1.44-1.39,1.34-2.5c-0.1-1.13-0.76-1.88-1.81-2.26
		c-0.62-0.23-1.29-0.22-1.94-0.22c-1.5-0.01-3,0-4.51,0c-0.07,0-0.14,0-0.24,0c0,0.1,0,0.17,0,0.25c0,3.44,0,6.88,0,10.32
		c0,0.18,0.05,0.23,0.23,0.23c1.27-0.01,2.53,0.01,3.8-0.01c0.86-0.01,1.73-0.01,2.58-0.13c2.07-0.3,2.88-2.65,2.21-4.13
		C13.16,13.22,12.54,12.77,11.73,12.51z M21.39,14.93c-0.04-0.48-0.05-0.93-0.11-1.38c-0.1-0.77-0.33-1.5-0.85-2.11
		c-0.68-0.81-1.58-1.15-2.61-1.2c-1.41-0.08-2.74,0.67-3.32,1.96c-0.61,1.35-0.61,2.73-0.1,4.11c0.3,0.8,0.83,1.42,1.63,1.75
		c1.16,0.49,2.34,0.52,3.51,0.02c0.87-0.38,1.39-1.09,1.71-1.99c-0.7-0.12-1.38-0.23-2.06-0.35c-0.04,0.11-0.07,0.2-0.11,0.29
		c-0.13,0.33-0.34,0.6-0.68,0.73c-0.55,0.2-1.07,0.12-1.53-0.24c-0.5-0.4-0.66-0.94-0.67-1.58C17.93,14.93,19.63,14.93,21.39,14.93z
		 M19.83,8.2c-1.43,0-2.84,0-4.25,0c0,0.48,0,0.94,0,1.4c1.42,0,2.83,0,4.25,0C19.83,9.13,19.83,8.67,19.83,8.2z"/>
	<path class="st0" d="M6.89,16.4c0-0.95,0-1.88,0-2.83c0.05-0.01,0.1-0.02,0.14-0.02c0.97,0.01,1.93,0.01,2.9,0.05
		c0.29,0.01,0.59,0.09,0.86,0.21c0.52,0.24,0.76,0.81,0.66,1.44c-0.09,0.58-0.47,0.99-1.05,1.08c-0.31,0.05-0.62,0.07-0.93,0.07
		c-0.81,0.01-1.62,0-2.43,0C7,16.41,6.96,16.4,6.89,16.4z"/>
	<path class="st0" d="M6.9,11.73c0-0.83,0-1.63,0-2.44c0.06-0.01,0.11-0.02,0.17-0.02c0.89,0,1.78,0,2.67,0.01
		c0.16,0,0.31,0.02,0.46,0.06c0.59,0.14,0.91,0.58,0.88,1.19c-0.02,0.61-0.42,1.06-1.05,1.15c-0.34,0.05-0.69,0.05-1.04,0.05
		C8.3,11.73,7.61,11.73,6.9,11.73z"/>
	<path class="st0" d="M19.29,13.64c-1.03,0-2.03,0-3.06,0c-0.01-0.6,0.14-1.13,0.63-1.5c0.49-0.37,1.03-0.41,1.57-0.13
		C19.08,12.34,19.25,12.94,19.29,13.64z"/>
</g>
</svg>
