<?xml version="1.0" encoding="utf-8"?>
<!-- Generator: Adobe Illustrator 25.4.1, SVG Export Plug-In . SVG Version: 6.00 Build 0)  -->
<svg version="1.1" id="Capa_1" xmlns="http://www.w3.org/2000/svg" xmlns:xlink="http://www.w3.org/1999/xlink" x="0px" y="0px"
	 viewBox="0 0 26 26" style="enable-background:new 0 0 26 26;" xml:space="preserve">
<style type="text/css">
	.st0{fill:#ADADAD;}
</style>
<g>
	<path class="st0" d="M12.84,0c2.1,0.06,4.2,0.05,6.29,0.2c2.54,0.18,4.58,1.3,5.84,3.6c0.74,1.36,0.94,2.85,0.95,4.36
		c0.02,3.39,0.02,6.79,0,10.18c-0.01,0.99-0.16,1.97-0.5,2.91c-0.93,2.57-2.8,4.07-5.46,4.48c-1.49,0.23-3.02,0.25-4.53,0.27
		c-2.55,0.03-5.1-0.01-7.64-0.05c-1.24-0.02-2.45-0.21-3.59-0.74c-2.23-1.03-3.53-2.82-3.88-5.21c-0.22-1.55-0.25-3.13-0.27-4.7
		c-0.03-2.49,0.02-4.99,0.05-7.48C0.12,6.81,0.25,5.8,0.6,4.84c0.93-2.59,2.8-4.1,5.47-4.5c1.56-0.23,3.15-0.21,4.73-0.28
		c0.68-0.03,1.36-0.01,2.04-0.01C12.84,0.04,12.84,0.02,12.84,0z M23.69,12.69c-0.05-1.61-0.08-3.68-0.21-5.74
		c-0.09-1.5-0.72-2.78-2.02-3.63c-0.89-0.58-1.9-0.81-2.94-0.83c-2.7-0.05-5.4-0.08-8.1-0.07C9.11,2.43,7.8,2.48,6.51,2.63
		C4.49,2.88,3.09,4.19,2.67,6.18C2.5,7.02,2.43,7.9,2.42,8.76c-0.04,2.29-0.04,4.59-0.01,6.88c0.02,1.3,0.04,2.62,0.21,3.91
		c0.28,2.12,1.67,3.52,3.77,3.88c0.8,0.14,1.61,0.19,2.42,0.2c2.24,0.03,4.48,0.04,6.72,0.01c1.33-0.02,2.66-0.05,3.97-0.21
		c1.79-0.23,3.1-1.2,3.69-2.96c0.21-0.62,0.32-1.28,0.35-1.93C23.63,16.74,23.64,14.94,23.69,12.69z"/>
	<path class="st0" d="M19.68,13.04c0,3.68-2.98,6.65-6.67,6.65c-3.69,0-6.66-2.97-6.66-6.66c0-3.69,2.97-6.67,6.65-6.66
		C16.71,6.37,19.68,9.34,19.68,13.04z M13.01,8.71c-2.38-0.01-4.31,1.93-4.31,4.32c0,2.39,1.91,4.31,4.3,4.32
		c2.39,0.01,4.31-1.9,4.33-4.3C17.36,10.67,15.42,8.72,13.01,8.71z"/>
	<path class="st0" d="M19.91,7.65c-0.85-0.01-1.55-0.71-1.54-1.56c0.01-0.86,0.72-1.57,1.59-1.56c0.85,0.01,1.54,0.72,1.54,1.57
		C21.49,6.96,20.78,7.66,19.91,7.65z"/>
</g>
</svg>
