<?xml version="1.0" encoding="utf-8"?>
<!-- Generator: Adobe Illustrator 25.4.1, SVG Export Plug-In . SVG Version: 6.00 Build 0)  -->
<svg version="1.1" id="Capa_1" xmlns="http://www.w3.org/2000/svg" xmlns:xlink="http://www.w3.org/1999/xlink" x="0px" y="0px"
	 viewBox="0 0 26 26" style="enable-background:new 0 0 26 26;" xml:space="preserve">
<style type="text/css">
	.st0{fill:#ADADAD;}
</style>
<g>
	<path class="st0" d="M12.98,2.56c3.86,0,7.71,0,11.57,0c0.17,0,0.34,0,0.51,0.02c0.5,0.06,0.87,0.45,0.92,0.98
		C26,3.74,26,3.92,26,4.1c0,5.93,0,11.87,0,17.8c0,1.16-0.34,1.54-1.43,1.54c-7.74,0-15.47,0-23.21,0C0.4,23.44,0,23,0,21.97
		c0-6,0-12.01,0-18.01c0-1.02,0.35-1.4,1.3-1.4C5.19,2.56,9.09,2.56,12.98,2.56z M2.81,4.27C2.79,4.3,2.77,4.33,2.75,4.36
		c0.11,0.1,0.22,0.19,0.32,0.29C4.81,6.33,6.54,8.04,8.29,9.7c1.41,1.34,2.87,2.62,4.3,3.94c0.25,0.23,0.48,0.23,0.73,0
		c0.3-0.27,0.63-0.51,0.92-0.79c2.95-2.79,5.89-5.58,8.83-8.37c0.05-0.05,0.08-0.12,0.15-0.21C16.38,4.27,9.6,4.27,2.81,4.27z
		 M2.61,21.73c6.98,0,13.84,0,20.7,0c0.02-0.03,0.04-0.06,0.06-0.09c-0.1-0.08-0.2-0.16-0.3-0.25c-1.24-1.23-2.47-2.47-3.72-3.69
		c-1.14-1.12-2.29-2.23-3.42-3.36c-0.29-0.29-0.52-0.39-0.83-0.02c-0.23,0.28-0.54,0.49-0.83,0.7c-0.9,0.68-1.76,0.68-2.66-0.01
		c-0.39-0.3-0.76-0.63-1.2-1C7.85,16.57,5.27,19.11,2.61,21.73z M1.62,5.54c0,4.97,0,9.86,0,14.82c2.55-2.53,5.04-5.01,7.58-7.53
		C6.66,10.39,4.16,7.99,1.62,5.54z M24.38,20.36c0-4.98,0-9.86,0-14.79c-2.54,2.43-5.04,4.82-7.58,7.26
		C19.32,15.33,21.82,17.82,24.38,20.36z"/>
</g>
</svg>
