<?xml version="1.0" encoding="utf-8"?>
<!-- Generator: Adobe Illustrator 25.4.1, SVG Export Plug-In . SVG Version: 6.00 Build 0)  -->
<svg version="1.1" id="Capa_1" xmlns="http://www.w3.org/2000/svg" xmlns:xlink="http://www.w3.org/1999/xlink" x="0px" y="0px"
	 viewBox="0 0 32 32" style="enable-background:new 0 0 32 32;" xml:space="preserve">
<style type="text/css">
	.st0{fill:#1E3956;}
</style>
<path class="st0" d="M26.59,6.39l-1.37,6.49c-0.49-0.64-1.71-1.38-3.88-1.37c-1.73,0.01-3.19,0.54-4.37,1.4l1.38-6.52h-5.41
	l-1.37,6.49c-0.49-0.64-1.71-1.38-3.88-1.37C2.84,11.55,0,15.58,0,19.83c0,3.36,1.86,5.78,5.08,5.78c2.11,0,3.26-0.59,4.19-1.55
	c-0.09,0.4-0.12,0.86-0.14,1.19h5.3c0.09-0.5,0.18-1.05,0.3-1.63c0.86,1.24,2.23,1.99,4.01,1.99c2.11,0,3.26-0.59,4.19-1.55
	c-0.09,0.4-0.12,0.86-0.14,1.19h5.3c0.18-1.08,0.42-2.34,0.74-3.86l3.18-15H26.59z M10.52,18.66c-0.4,1.93-1.31,3.28-3.07,3.28
	c-1.26,0-1.95-0.89-1.95-2.27c0-1.93,1.04-4.52,3.14-4.52C10.53,15.15,10.97,16.45,10.52,18.66z M24.17,18.66
	c-0.4,1.93-1.31,3.28-3.07,3.28c-1.26,0-1.95-0.89-1.95-2.27c0-1.93,1.04-4.52,3.14-4.52C24.19,15.15,24.62,16.45,24.17,18.66z"/>
</svg>
